# xmcd
#
# Track frame offsets:
# 150
# 22502
# 44433
# 79132
# 96958
# 133242
# 154933
# 196710
# 238629
# 285109
# 296194
#
# Disc length: 4217 seconds
#
# Revision: 0
# Processed by: cddbd v1.4PL0 Copyright (c) Steve Scherf et al.
# Submitted via: Audion 3.0.2 (http://www.panic.com/audion/)
#
DISCID=8e10770b
DTITLE=Frederick Moore - Archive 90.1&94.6(Northridge)
DYEAR=1900
DGENRE=
TTITLE0=And The Morning Turned To Shine
TTITLE1=Flag Falling
TTITLE2=Mainstreams
TTITLE3=The Man Closing Up
TTITLE4=Burned and Scattered Gods
TTITLE5=And The Morning Turned To Shine
TTITLE6=Hexagon Lake (Flawed)
TTITLE7=Hexagon Lake
TTITLE8=Credo Epochula
TTITLE9=Three Vignettes
TTITLE10=FlagFalling
EXTD=
EXTT0=
EXTT1=
EXTT2=
EXTT3=
EXTT4=
EXTT5=
EXTT6=
EXTT7=
EXTT8=
EXTT9=
EXTT10=
PLAYORDER=
